<?xml version="1.0" encoding="UTF-8"?>
<!DOCTYPE svg PUBLIC "-//W3C//DTD SVG 1.1//EN" "http://www.w3.org/Graphics/SVG/1.1/DTD/svg11.dtd">
<svg xmlns="http://www.w3.org/2000/svg" version="1.1" width="736px" height="648px" style="shape-rendering:geometricPrecision; text-rendering:geometricPrecision; image-rendering:optimizeQuality; fill-rule:evenodd; clip-rule:evenodd" xmlns:xlink="http://www.w3.org/1999/xlink">
<g><path style="opacity:0.006" fill="#000000" d="M 127.5,16.5 C 289.525,16.0098 451.525,16.5098 613.5,18C 455.177,19.6404 296.844,19.9737 138.5,19C 132.833,18.6667 127.167,18.3333 121.5,18C 123.708,17.8091 125.708,17.3091 127.5,16.5 Z"/></g>
<g><path style="opacity:0.215" fill="#2e3332" d="M 135.5,24.5 C 290.666,23.3339 445.999,23.1672 601.5,24C 609.156,25.2763 616.822,26.443 624.5,27.5C 627.628,28.9827 630.628,30.6493 633.5,32.5C 628.871,31.1245 624.204,29.6245 619.5,28C 612.5,27 605.5,26 598.5,25C 558.835,24.5 519.168,24.3333 479.5,24.5C 380.5,24.5 281.5,24.5 182.5,24.5C 166.833,24.5 151.167,24.5 135.5,24.5 Z"/></g>
<g><path style="opacity:0.386" fill="#4f5958" d="M 479.5,24.5 C 519.168,24.3333 558.835,24.5 598.5,25C 605.5,26 612.5,27 619.5,28C 624.204,29.6245 628.871,31.1245 633.5,32.5C 636.397,34.7783 639.73,36.2783 643.5,37C 645.093,37.9487 646.426,39.1154 647.5,40.5C 635.76,35.642 623.76,31.4753 611.5,28C 606.492,27.4992 601.492,26.9992 596.5,26.5C 595.167,26.5 593.833,26.5 592.5,26.5C 554.833,25.8333 517.167,25.1667 479.5,24.5 Z"/></g>
<g><path style="opacity:0.941" fill="#00153c" d="M 593.5,27.5 C 596.5,28.1667 599.5,28.8333 602.5,29.5C 444.833,28.1681 287.166,28.1681 129.5,29.5C 131.969,28.6829 134.635,28.1829 137.5,28C 289.5,27.5 441.5,27.3333 593.5,27.5 Z"/></g>
<g><path style="opacity:0.776" fill="#99a7a7" d="M 596.5,26.5 C 601.492,26.9992 606.492,27.4992 611.5,28C 623.76,31.4753 635.76,35.642 647.5,40.5C 649.228,42.8774 651.561,44.544 654.5,45.5C 657.688,47.9319 660.688,50.5985 663.5,53.5C 654.506,46.9979 644.84,41.4979 634.5,37C 624.188,32.9218 613.521,30.4218 602.5,29.5C 599.5,28.8333 596.5,28.1667 593.5,27.5C 594.791,27.7373 595.791,27.404 596.5,26.5 Z"/></g>
<g><path style="opacity:0.282" fill="#495252" d="M 647.5,40.5 C 650.939,40.6035 653.272,42.2702 654.5,45.5C 651.561,44.544 649.228,42.8774 647.5,40.5 Z"/></g>
<g><path style="opacity:0.013" fill="#0b0c0c" d="M 624.5,27.5 C 616.822,26.443 609.156,25.2763 601.5,24C 445.999,23.1672 290.666,23.3339 135.5,24.5C 123.037,25.821 110.871,28.4877 99,32.5C 95.8303,35.7842 91.9969,37.9509 87.5,39C 69.7062,49.4622 55.2062,63.2956 44,80.5C 39.4038,88.8693 35.4038,97.536 32,106.5C 30.8932,112.201 29.7266,117.868 28.5,123.5C 26.3051,135.573 25.1385,147.906 25,160.5C 24.3333,260.167 24.3333,359.833 25,459.5C 25.9069,470.315 26.7403,480.982 27.5,491.5C 27.5,495.167 27.5,498.833 27.5,502.5C 27.3337,509.175 27.5004,515.842 28,522.5C 30.4902,528.223 32.1569,534.223 33,540.5C 33.3826,541.056 33.8826,541.389 34.5,541.5C 34.3379,543.527 34.5045,545.527 35,547.5C 38.0707,552.638 40.9041,557.971 43.5,563.5C 44.3569,564.425 45.3569,565.092 46.5,565.5C 46.3433,566.873 46.51,568.207 47,569.5C 49.4982,571.823 51.9982,574.157 54.5,576.5C 59.2361,582.742 64.5694,588.576 70.5,594C 72.0779,595.094 73.7446,595.928 75.5,596.5C 76.6138,597.885 77.6138,599.385 78.5,601C 84.7756,604.147 91.1089,606.98 97.5,609.5C 102.594,612.292 107.927,614.792 113.5,617C 120.597,617.692 127.597,618.859 134.5,620.5C 134.5,620.833 134.5,621.167 134.5,621.5C 124.497,622.001 114.497,622.167 104.5,622C 109.386,620.776 114.386,620.109 119.5,620C 119.167,619.667 118.833,619.333 118.5,619C 113.319,618.44 108.152,618.607 103,619.5C 101.5,619.167 100,618.833 98.5,618.5C 101.447,617.679 104.447,617.179 107.5,617C 107.167,616.667 106.833,616.333 106.5,616C 101.505,616.082 96.5055,616.082 91.5,616C 91.1667,615.667 90.8333,615.333 90.5,615C 93.3713,614.882 96.038,614.216 98.5,613C 97.2341,612.691 96.0674,612.191 95,611.5C 91.9134,613.735 88.7467,613.901 85.5,612C 87.6079,611.64 89.6079,610.973 91.5,610C 88.71,608.563 85.8767,608.73 83,610.5C 81.9412,610.37 81.1079,609.87 80.5,609C 82.087,608.138 83.7536,607.471 85.5,607C 85.1667,606.667 84.8333,606.333 84.5,606C 81.5399,606.32 78.5399,606.32 75.5,606C 76.9494,604.883 78.6161,604.216 80.5,604C 79.8921,603.13 79.0588,602.63 78,602.5C 75.8014,603.645 73.6348,603.645 71.5,602.5C 72.8333,601.833 74.1667,601.167 75.5,600.5C 73.2192,599.815 70.8859,599.649 68.5,600C 68.1667,599.667 67.8333,599.333 67.5,599C 68.624,598.751 69.624,598.251 70.5,597.5C 68.1337,597.867 65.8004,597.367 63.5,596C 64.624,595.751 65.624,595.251 66.5,594.5C 64.6471,593.24 62.8138,593.24 61,594.5C 60.5,594 60,593.5 59.5,593C 60.6776,592.033 62.011,591.533 63.5,591.5C 61.2338,590.686 58.9005,590.186 56.5,590C 57.6226,588.956 58.9559,588.29 60.5,588C 60,587.5 59.5,587 59,586.5C 57.3744,587.097 55.541,587.097 53.5,586.5C 54.7287,585.719 56.062,585.219 57.5,585C 57,584.5 56.5,584 56,583.5C 54.4667,583.944 52.9667,584.277 51.5,584.5C 49.6186,582.039 49.6186,579.872 51.5,578C 50.552,577.517 49.552,577.351 48.5,577.5C 48.6495,578.552 48.4828,579.552 48,580.5C 46.123,578.209 46.2897,576.209 48.5,574.5C 48.1445,573.478 47.4778,572.811 46.5,572.5C 43.9818,566.848 42.4818,567.181 42,573.5C 40.2522,570.761 40.0856,567.927 41.5,565C 41.3613,563.699 40.6946,562.866 39.5,562.5C 38.9536,560.697 38.1203,559.03 37,557.5C 36.4888,559.878 35.8221,562.212 35,564.5C 34.4541,561.145 34.6208,557.812 35.5,554.5C 35.523,552.933 35.023,551.6 34,550.5C 33.4054,551.899 33.5721,553.232 34.5,554.5C 33.4783,555.354 32.6449,556.354 32,557.5C 30.4752,553.525 30.6419,549.525 32.5,545.5C 32.1322,544.09 31.2989,543.09 30,542.5C 29.8214,545.553 29.3214,548.553 28.5,551.5C 28.1667,550 27.8333,548.5 27.5,547C 27.9276,543.758 28.5942,540.591 29.5,537.5C 29.5577,534.943 28.8911,532.61 27.5,530.5C 26.671,535.467 26.171,540.467 26,545.5C 23.9759,537.954 24.1426,530.454 26.5,523C 25.9061,516.466 25.0728,509.966 24,503.5C 23.8321,513.184 23.3321,522.851 22.5,532.5C 21.4743,516.141 21.8076,499.808 23.5,483.5C 22.2853,382.25 22.2853,280.75 23.5,179C 23.6549,160.292 22.9883,141.626 21.5,123C 21.8333,118.833 22.1667,114.667 22.5,110.5C 23.3319,119.148 23.8319,127.814 24,136.5C 27.0549,126.692 27.2216,116.858 24.5,107C 24.8333,104.833 25.1667,102.667 25.5,100.5C 26.3283,105.132 26.8283,109.798 27,114.5C 28.804,112.723 29.6373,110.556 29.5,108C 28.2583,103.55 27.7583,99.0504 28,94.5C 28.3333,94.1667 28.6667,93.8333 29,93.5C 29.3333,96.8333 29.6667,100.167 30,103.5C 31.5084,101.983 32.3417,100.149 32.5,98C 31.3595,95.8369 30.6928,93.5036 30.5,91C 30.8333,89.8333 31.1667,88.6667 31.5,87.5C 32.7904,89.6565 33.6237,91.9899 34,94.5C 34.9435,93.737 35.4435,92.737 35.5,91.5C 34.3295,88.151 34.3295,84.8177 35.5,81.5C 36.3078,83.4233 36.8078,85.4233 37,87.5C 39.561,84.9499 39.7277,82.1165 37.5,79C 37.8333,77.8333 38.1667,76.6667 38.5,75.5C 39.3078,77.4233 39.8078,79.4233 40,81.5C 41.0946,80.3066 41.928,78.9733 42.5,77.5C 46.0673,75.8571 46.4006,73.6904 43.5,71C 43.8333,70.1667 44.1667,69.3333 44.5,68.5C 45.1667,69.5 45.8333,70.5 46.5,71.5C 47.3142,69.2338 47.8142,66.9005 48,64.5C 48.9147,65.3279 49.5814,66.3279 50,67.5C 52.1135,65.7289 51.9468,64.2289 49.5,63C 50.6492,61.2559 51.9825,61.0892 53.5,62.5C 54.6039,61.3687 54.2705,60.5354 52.5,60C 53.5358,58.3831 54.7025,58.2164 56,59.5C 58.0955,58.2845 57.9288,57.4512 55.5,57C 55.8333,56.6667 56.1667,56.3333 56.5,56C 58.4361,54.2205 61.1028,52.8871 64.5,52C 62.3426,50.9153 62.1759,49.7487 64,48.5C 67.4741,49.9277 67.9741,49.4277 65.5,47C 65.8333,46.6667 66.1667,46.3333 66.5,46C 68.447,46.5356 70.447,46.2022 72.5,45C 71.1667,44.6667 69.8333,44.3333 68.5,44C 70.674,42.2029 73.0073,42.0362 75.5,43.5C 75.8333,43.1667 76.1667,42.8333 76.5,42.5C 75.5,41.8333 74.5,41.1667 73.5,40.5C 76.6028,40.2428 79.6028,39.7428 82.5,39C 80.6161,38.7837 78.9494,38.117 77.5,37C 80.2305,36.2716 82.8971,36.4383 85.5,37.5C 86.5,37 87.5,36.5 88.5,36C 86.2115,35.1779 83.8782,34.5112 81.5,34C 83.1012,33.7266 84.6012,33.2266 86,32.5C 88.7065,34.8855 91.5398,35.0522 94.5,33C 92.2852,31.9562 89.9519,31.2895 87.5,31C 88.4296,30.0093 89.5962,29.5093 91,29.5C 94.521,30.6301 98.021,30.6301 101.5,29.5C 98.8333,28.8333 96.1667,28.1667 93.5,27.5C 97.3243,26.103 100.991,26.4364 104.5,28.5C 106.988,27.9752 109.321,27.1419 111.5,26C 107.789,25.8253 104.122,25.3253 100.5,24.5C 106.308,23.5561 112.142,23.5561 118,24.5C 120.96,24.5571 123.793,24.0571 126.5,23C 120.722,22.9059 115.056,22.2392 109.5,21C 275.864,21.4791 442.03,21.6458 608,21.5C 610.796,20.7887 613.63,20.122 616.5,19.5C 619.443,20.2435 622.443,20.7435 625.5,21C 624.833,21.3333 624.167,21.6667 623.5,22C 617.833,22.3333 612.167,22.6667 606.5,23C 615.79,24.0436 625.124,24.5436 634.5,24.5C 630.878,25.3253 627.211,25.8253 623.5,26C 624.056,26.3826 624.389,26.8826 624.5,27.5 Z M 52.5,580.5 C 53.2891,580.783 53.9558,581.283 54.5,582C 53.184,582.528 52.5173,582.028 52.5,580.5 Z"/></g>
<g><path style="opacity:0.503" fill="#6f7c78" d="M 182.5,24.5 C 281.5,24.5 380.5,24.5 479.5,24.5C 517.167,25.1667 554.833,25.8333 592.5,26.5C 438.145,26.1725 283.812,26.5059 129.5,27.5C 130.263,26.7321 131.263,26.2321 132.5,26C 149.338,25.8315 166.005,25.3315 182.5,24.5 Z"/></g>
<g><path style="opacity:0.251" fill="#444d4c" d="M 654.5,45.5 C 659.837,46.4975 664.17,49.1642 667.5,53.5C 666.167,53.5 664.833,53.5 663.5,53.5C 660.688,50.5985 657.688,47.9319 654.5,45.5 Z"/></g>
<g><path style="opacity:0.007" fill="#000000" d="M 669.5,51.5 C 669.963,48.4312 671.296,47.9312 673.5,50C 672.255,50.7914 670.922,51.2914 669.5,51.5 Z"/></g>
<g><path style="opacity:0.431" fill="#505856" d="M 135.5,24.5 C 151.167,24.5 166.833,24.5 182.5,24.5C 166.005,25.3315 149.338,25.8315 132.5,26C 131.263,26.2321 130.263,26.7321 129.5,27.5C 126.482,27.3354 123.482,27.502 120.5,28C 101.569,33.6337 84.2353,42.1337 68.5,53.5C 63.1667,59.5 57.8333,65.5 52.5,71.5C 41.772,87.6198 33.772,104.953 28.5,123.5C 29.7266,117.868 30.8932,112.201 32,106.5C 35.4038,97.536 39.4038,88.8693 44,80.5C 55.2062,63.2956 69.7062,49.4622 87.5,39C 91.9969,37.9509 95.8303,35.7842 99,32.5C 110.871,28.4877 123.037,25.821 135.5,24.5 Z"/></g>
<g><path style="opacity:0.341" fill="#444d4d" d="M 668.5,54.5 C 670.716,55.2026 672.549,56.5359 674,58.5C 687.61,73.7171 697.61,91.0504 704,110.5C 704.497,112.81 704.663,115.143 704.5,117.5C 697.584,93.5864 685.584,72.5864 668.5,54.5 Z"/></g>
<g><path style="opacity:0.005" fill="#000000" d="M 42.5,77.5 C 41.3065,77.0296 40.6399,76.0296 40.5,74.5C 40.6667,73.5 40.8333,72.5 41,71.5C 42.3186,73.2495 42.8186,75.2495 42.5,77.5 Z"/></g>
<g><path style="opacity:0.006" fill="#000000" d="M 705.5,106.5 C 705.176,102.445 705.509,98.4454 706.5,94.5C 707.912,98.7645 707.579,102.764 705.5,106.5 Z"/></g>
<g><path style="opacity:0.753" fill="#b0bcb7" d="M 592.5,26.5 C 593.833,26.5 595.167,26.5 596.5,26.5C 595.791,27.404 594.791,27.7373 593.5,27.5C 441.5,27.3333 289.5,27.5 137.5,28C 134.635,28.1829 131.969,28.6829 129.5,29.5C 93.0351,34.8096 65.2018,53.1429 46,84.5C 37.9389,98.517 32.7722,113.517 30.5,129.5C 29.5184,253.824 29.1851,378.157 29.5,502.5C 29.7947,504.735 29.4614,506.735 28.5,508.5C 28.5,506.5 28.5,504.5 28.5,502.5C 27.5981,388.17 27.2648,273.836 27.5,159.5C 28.0754,147.508 28.4087,135.508 28.5,123.5C 33.772,104.953 41.772,87.6198 52.5,71.5C 57.8333,65.5 63.1667,59.5 68.5,53.5C 84.2353,42.1337 101.569,33.6337 120.5,28C 123.482,27.502 126.482,27.3354 129.5,27.5C 283.812,26.5059 438.145,26.1725 592.5,26.5 Z"/></g>
<g><path style="opacity:0.004" fill="#000000" d="M 703.5,100.5 C 704.833,101.167 704.833,101.167 703.5,100.5 Z"/></g>
<g><path style="opacity:0.007" fill="#000000" d="M 708.5,119.5 C 708.173,114.456 708.506,109.456 709.5,104.5C 709.833,106.5 710.167,108.5 710.5,110.5C 710.657,113.814 709.991,116.814 708.5,119.5 Z"/></g>
<g><path style="opacity:0.011" fill="#000000" d="M 711.5,113.5 C 713.448,117.873 714.448,122.706 714.5,128C 713.179,222.328 713.179,316.662 714.5,411C 713.891,450.499 713.225,489.999 712.5,529.5C 711.5,390.835 711.167,252.168 711.5,113.5 Z"/></g>
<g><path style="opacity:0.007" fill="#000000" d="M 18.5,126.5 C 19.2679,127.263 19.7679,128.263 20,129.5C 20.1667,193 20.3333,256.5 20.5,320C 20.6509,386.521 20.1509,453.021 19,519.5C 18.7935,507.474 18.2935,495.474 17.5,483.5C 18.0424,364.506 18.3757,245.506 18.5,126.5 Z"/></g>
<g><path style="opacity:0.004" fill="#000000" d="M 715.5,145.5 C 716.665,189.998 716.831,234.665 716,279.5C 715.05,234.826 714.883,190.159 715.5,145.5 Z"/></g>
<g><path style="opacity:0.678" fill="#768483" d="M 663.5,53.5 C 664.833,53.5 666.167,53.5 667.5,53.5C 667.5,54.1667 667.833,54.5 668.5,54.5C 685.584,72.5864 697.584,93.5864 704.5,117.5C 704.999,122.492 705.499,127.492 706,132.5C 706.833,260.001 706.666,387.334 705.5,514.5C 705.667,387.5 705.5,260.5 705,133.5C 701.422,101.34 687.589,74.6729 663.5,53.5 Z"/></g>
<g><path style="opacity:0.951" fill="#000b35" d="M 30.5,129.5 C 30.3549,253.318 30.5216,377.318 31,501.5C 31.3623,506.681 31.8623,511.848 32.5,517C 32.4857,518.385 32.1524,519.551 31.5,520.5C 30.9626,514.35 30.296,508.35 29.5,502.5C 29.1851,378.157 29.5184,253.824 30.5,129.5 Z"/></g>
<g><path style="opacity:0.995" fill="#0e3256" d="M 602.5,29.5 C 613.521,30.4218 624.188,32.9218 634.5,37C 644.84,41.4979 654.506,46.9979 663.5,53.5C 687.589,74.6729 701.422,101.34 705,133.5C 705.5,260.5 705.667,387.5 705.5,514.5C 696.094,569.574 664.094,603.241 609.5,615.5C 608.5,615.5 607.5,615.5 606.5,615.5C 451.344,616.155 296.344,616.822 141.5,617.5C 114.94,615.763 91.273,606.763 70.5,590.5C 49.7041,571.581 36.7041,548.247 31.5,520.5C 32.1524,519.551 32.4857,518.385 32.5,517C 31.8623,511.848 31.3623,506.681 31,501.5C 30.5216,377.318 30.3549,253.318 30.5,129.5C 32.7722,113.517 37.9389,98.517 46,84.5C 65.2018,53.1429 93.0351,34.8096 129.5,29.5C 287.166,28.1681 444.833,28.1681 602.5,29.5 Z"/></g>
<g><path style="opacity:0.996" fill="#000320" d="M 60.5,126.5 C 60.0482,130.163 59.5482,133.83 59,137.5C 58.5,261.166 58.3333,384.833 58.5,508.5C 57.334,384.667 57.1673,260.667 58,136.5C 58.004,131.577 58.8373,128.244 60.5,126.5 Z"/></g>
<g><path style="opacity:0.996" fill="#fbfbfb" d="M 675.5,132.5 C 675.5,133.833 675.5,135.167 675.5,136.5C 675.989,265.196 675.489,393.863 674,522.5C 662.912,560.763 637.745,582.763 598.5,588.5C 446.166,588.667 293.833,588.5 141.5,588C 126.982,587.121 113.316,583.288 100.5,576.5C 84.5512,566.045 72.7178,552.045 65,534.5C 62.1163,525.885 59.9496,517.218 58.5,508.5C 58.3333,384.833 58.5,261.166 59,137.5C 59.5482,133.83 60.0482,130.163 60.5,126.5C 70.1469,90.023 93.4802,67.523 130.5,59C 286.485,57.3509 442.485,57.0176 598.5,58C 641.124,65.459 666.79,90.2923 675.5,132.5 Z"/></g>
<g><path style="opacity:0.996" fill="#2abd69" d="M 161.5,260.5 C 185.836,260.333 210.169,260.5 234.5,261C 246.157,265.449 252.657,273.949 254,286.5C 254.667,306.833 254.667,327.167 254,347.5C 252.348,360.481 245.182,368.315 232.5,371C 208.5,371.667 184.5,371.667 160.5,371C 151.009,367.197 144.843,360.364 142,350.5C 141.333,329.167 141.333,307.833 142,286.5C 144.136,274.534 150.636,265.867 161.5,260.5 Z"/></g>
<g><path style="opacity:0.996" fill="#257ed3" d="M 145.5,216.5 C 147.969,219.144 150.302,221.977 152.5,225C 154.67,226.586 157.004,227.92 159.5,229C 184.67,229.168 209.67,229.668 234.5,230.5C 210.511,231.559 186.511,231.726 162.5,231C 153.967,229.417 148.301,224.583 145.5,216.5 Z"/></g>
<g><path style="opacity:0.996" fill="#0e72d0" d="M 141.5,146.5 C 142.279,164.669 142.946,183.002 143.5,201.5C 143.497,204.355 143.164,207.022 142.5,209.5C 141.546,188.527 141.212,167.527 141.5,146.5 Z"/></g>
<g><path style="opacity:0.996" fill="#b5ccd8" d="M 301.5,157.5 C 389.501,157.333 477.501,157.5 565.5,158C 570.315,159.31 573.815,162.143 576,166.5C 577.527,172.415 577.861,178.415 577,184.5C 574.748,191.558 569.915,195.725 562.5,197C 475.167,197.667 387.833,197.667 300.5,197C 288.092,193.035 283.259,184.535 286,171.5C 288.242,163.417 293.409,158.751 301.5,157.5 Z"/></g>
<g><path style="opacity:0.996" fill="#1183d5" d="M 234.5,230.5 C 209.67,229.668 184.67,229.168 159.5,229C 157.004,227.92 154.67,226.586 152.5,225C 150.302,221.977 147.969,219.144 145.5,216.5C 144.055,214.429 143.055,212.096 142.5,209.5C 143.164,207.022 143.497,204.355 143.5,201.5C 142.946,183.002 142.279,164.669 141.5,146.5C 142.882,135.286 148.882,127.786 159.5,124C 185.167,123.333 210.833,123.333 236.5,124C 246.415,127.251 251.915,134.085 253,144.5C 253.667,165.167 253.667,185.833 253,206.5C 251.392,218.062 245.226,226.062 234.5,230.5 Z"/></g>
<g><path style="opacity:0.996" fill="#0368cb" d="M 163.5,202.5 C 163.085,205.368 164.085,207.535 166.5,209C 185.164,209.5 203.83,209.667 222.5,209.5C 203.671,210.662 184.671,210.829 165.5,210C 162.6,207.974 161.933,205.474 163.5,202.5 Z"/></g>
<g><path style="opacity:0.996" fill="#0163ca" d="M 163.5,146.5 C 162.535,160.451 162.201,174.451 162.5,188.5C 161.236,183.541 161.069,169.875 162,147.5C 162.333,146.833 162.667,146.167 163,145.5C 163.399,145.728 163.565,146.062 163.5,146.5 Z"/></g>
<g><path style="opacity:0.996" fill="#016dcd" d="M 227.5,144.5 C 230.175,143.253 232.009,144.253 233,147.5C 233.667,166.5 233.667,185.5 233,204.5C 232.832,185.662 232.332,166.996 231.5,148.5C 231.167,146.167 229.833,144.833 227.5,144.5 Z"/></g>
<g><path style="opacity:0.996" fill="#fbfcfc" d="M 227.5,144.5 C 229.833,144.833 231.167,146.167 231.5,148.5C 231.667,168.169 231.5,187.836 231,207.5C 228.174,208.213 225.34,208.88 222.5,209.5C 203.83,209.667 185.164,209.5 166.5,209C 164.085,207.535 163.085,205.368 163.5,202.5C 163.819,197.637 163.486,192.97 162.5,188.5C 162.201,174.451 162.535,160.451 163.5,146.5C 164.683,145.496 166.016,144.662 167.5,144C 187.573,143.18 207.573,143.346 227.5,144.5 Z"/></g>
<g><path style="opacity:0.996" fill="#fbfcfb" d="M 170.5,282.5 C 188.503,282.333 206.503,282.5 224.5,283C 226.848,283.346 228.681,284.513 230,286.5C 231.144,296.906 231.644,307.406 231.5,318C 231.333,327.833 231.167,337.667 231,347.5C 230.5,348 230,348.5 229.5,349C 218.735,350.133 207.902,350.633 197,350.5C 187.167,350.333 177.333,350.167 167.5,350C 166.584,349.626 165.75,349.126 165,348.5C 163.358,328.59 163.025,308.59 164,288.5C 164.796,284.866 166.963,282.866 170.5,282.5 Z"/></g>
<g><path style="opacity:0.655" fill="#758380" d="M 27.5,159.5 C 27.2648,273.836 27.5981,388.17 28.5,502.5C 28.1667,502.5 27.8333,502.5 27.5,502.5C 27.5,498.833 27.5,495.167 27.5,491.5C 26.2222,380.67 26.2222,270.003 27.5,159.5 Z"/></g>
<g><path style="opacity:0.475" fill="#464e4c" d="M 28.5,123.5 C 28.4087,135.508 28.0754,147.508 27.5,159.5C 26.2222,270.003 26.2222,380.67 27.5,491.5C 26.7403,480.982 25.9069,470.315 25,459.5C 24.3333,359.833 24.3333,260.167 25,160.5C 25.1385,147.906 26.3051,135.573 28.5,123.5 Z"/></g>
<g><path style="opacity:0.996" fill="#b4cbd8" d="M 298.5,297.5 C 387.501,297.333 476.501,297.5 565.5,298C 570.84,299.41 574.673,302.577 577,307.5C 577.667,313.833 577.667,320.167 577,326.5C 574.968,331.867 571.135,335.033 565.5,336C 476.167,336.667 386.833,336.667 297.5,336C 289.111,332.729 285.111,326.563 285.5,317.5C 284.869,307.394 289.202,300.727 298.5,297.5 Z"/></g>
<g><path style="opacity:0.996" fill="#2abd6a" d="M 614.5,331.5 C 631.647,330.48 639.481,338.48 638,355.5C 636.667,358.167 635.333,360.833 634,363.5C 582.833,415.333 531.667,467.167 480.5,519C 471.871,524.989 463.205,524.989 454.5,519C 417.974,483.474 381.807,447.64 346,411.5C 340.329,401.318 341.496,392.151 349.5,384C 356.804,379.402 364.138,379.402 371.5,384C 403.943,414.442 435.776,445.609 467,477.5C 514.528,430.306 561.694,382.806 608.5,335C 610.727,334.059 612.727,332.892 614.5,331.5 Z"/></g>
<g><path style="opacity:0.996" fill="#ecf1f2" d="M 674.5,399.5 C 673.833,389.326 673.167,378.992 672.5,368.5C 672.167,368.833 671.833,369.167 671.5,369.5C 671.629,385.036 671.629,400.702 671.5,416.5C 671.308,418.577 670.808,420.577 670,422.5C 667.439,424.607 665.606,427.274 664.5,430.5C 665.855,431.675 665.688,432.675 664,433.5C 662.244,432.579 662.077,431.412 663.5,430C 663.15,428.743 662.483,428.409 661.5,429C 661.833,429.333 662.167,429.667 662.5,430C 660.56,429.822 658.893,430.822 657.5,433C 657.833,433.333 658.167,433.667 658.5,434C 657.151,434.772 656.318,435.939 656,437.5C 654.16,436.167 653.66,436.334 654.5,438C 653.672,438.915 652.672,439.581 651.5,440C 651.833,440.333 652.167,440.667 652.5,441C 650.779,442.527 648.779,443.527 646.5,444C 646.957,444.414 647.291,444.914 647.5,445.5C 646.478,446.354 645.645,447.354 645,448.5C 644.107,447.289 643.274,447.289 642.5,448.5C 643.025,449.192 643.692,449.692 644.5,450C 643.167,451 641.833,452 640.5,453C 641.654,453.914 641.487,454.747 640,455.5C 639.465,453.729 638.631,453.396 637.5,454.5C 637.694,456.07 637.694,457.57 637.5,459C 636.069,459.465 634.903,460.299 634,461.5C 633.667,461.167 633.333,460.833 633,460.5C 631.963,465.955 629.963,470.955 627,475.5C 626.667,474.833 626.333,474.167 626,473.5C 624.373,475.973 623.873,478.473 624.5,481C 624.047,483.768 623.047,486.601 621.5,489.5C 620.448,489.351 619.448,489.517 618.5,490C 619.654,490.914 619.487,491.747 618,492.5C 617.667,491.833 617.333,491.167 617,490.5C 616.223,493.429 616.39,496.263 617.5,499C 614.572,499.36 613.906,500.693 615.5,503C 612.975,506.59 610.975,510.09 609.5,513.5C 612.076,514.883 611.742,515.717 608.5,516C 608.833,516.333 609.167,516.667 609.5,517C 607.043,518.154 607.043,519.488 609.5,521C 608.328,521.353 607.162,521.187 606,520.5C 604.131,521.369 603.631,522.535 604.5,524C 603.891,526.058 602.891,526.891 601.5,526.5C 602.002,527.716 602.335,528.883 602.5,530C 600.652,531.518 599.152,533.351 598,535.5C 596.513,534.259 595.68,534.759 595.5,537C 595.755,538.326 596.422,539.326 597.5,540C 595.253,541.655 592.92,541.988 590.5,541C 592.283,542.067 592.783,543.567 592,545.5C 591.751,544.376 591.251,543.376 590.5,542.5C 589.289,543.274 589.289,544.107 590.5,545C 589.354,545.645 588.354,546.478 587.5,547.5C 586.325,546.145 585.325,546.312 584.5,548C 589.39,549.095 589.39,549.762 584.5,550C 583.809,551.067 583.309,552.234 583,553.5C 582.086,552.346 581.253,552.513 580.5,554C 581.167,554.333 581.833,554.667 582.5,555C 580.939,555.318 579.772,556.151 579,557.5C 578.586,557.043 578.086,556.709 577.5,556.5C 576.795,558.672 575.795,560.672 574.5,562.5C 573.914,562.291 573.414,561.957 573,561.5C 571.855,564.477 569.688,566.144 566.5,566.5C 567.376,567.251 568.376,567.751 569.5,568C 567.597,569.828 565.764,569.661 564,567.5C 563.544,568.744 564.044,569.577 565.5,570C 563.369,570.543 561.369,571.376 559.5,572.5C 560.052,574.003 560.052,575.669 559.5,577.5C 557.508,577.328 555.842,577.995 554.5,579.5C 554.167,578.833 553.833,578.167 553.5,577.5C 552.808,578.025 552.308,578.692 552,579.5C 551.333,578.167 550.667,578.167 550,579.5C 549.667,578.833 549.333,578.167 549,577.5C 548.07,579.552 546.57,581.052 544.5,582C 544.833,582.333 545.167,582.667 545.5,583C 543.754,583.471 542.087,584.138 540.5,585C 541.056,585.383 541.389,585.883 541.5,586.5C 408.5,586.667 275.5,586.5 142.5,586C 242.833,585.5 343.166,585.333 443.5,585.5C 443.344,581.865 442.178,581.532 440,584.5C 439,583.167 438,581.833 437,580.5C 436,580.833 435,581.167 434,581.5C 433.5,581 433,580.5 432.5,580C 436.334,577.734 436.001,577.067 431.5,578C 434.264,576.456 434.097,575.289 431,574.5C 429.221,577.276 428.221,576.943 428,573.5C 424.903,572.711 424.736,571.544 427.5,570C 426.167,570 424.833,570 423.5,570C 424.167,569.333 424.833,568.667 425.5,568C 422.687,566.014 419.687,564.348 416.5,563C 414.572,559.569 412.072,556.736 409,554.5C 406.871,555.863 406.371,555.529 407.5,553.5C 406.86,550.352 405.86,550.019 404.5,552.5C 403.646,551.052 402.646,549.719 401.5,548.5C 402.376,547.749 403.376,547.249 404.5,547C 402.122,546.489 399.788,545.822 397.5,545C 398.535,543.493 398.368,541.993 397,540.5C 396.667,541.167 396.333,541.833 396,542.5C 392.126,538.86 387.626,535.026 382.5,531C 382.018,529.992 381.852,528.825 382,527.5C 381.667,527.833 381.333,528.167 381,528.5C 379.833,526.667 378.333,525.167 376.5,524C 376.833,523.667 377.167,523.333 377.5,523C 374.638,522.07 372.305,520.403 370.5,518C 370.957,517.586 371.291,517.086 371.5,516.5C 370.726,515.289 369.893,515.289 369,516.5C 368.544,515.256 369.044,514.423 370.5,514C 368.687,514.046 367.021,513.88 365.5,513.5C 364.167,512.5 364.167,511.5 365.5,510.5C 364.137,509.107 363.304,507.441 363,505.5C 362.667,505.833 362.333,506.167 362,506.5C 361.667,504.833 361.333,503.167 361,501.5C 358.5,500.333 356.667,498.5 355.5,496C 356.167,495.667 356.833,495.333 357.5,495C 356.333,494.5 355.5,493.667 355,492.5C 354.667,493.167 354.333,493.833 354,494.5C 353.215,492.714 352.049,491.214 350.5,490C 353.084,488.006 352.918,487.506 350,488.5C 348.941,488.37 348.108,487.87 347.5,487C 348.833,486 348.833,485 347.5,484C 351.5,482.667 351.5,481.333 347.5,480C 352.639,480.031 357.639,479.198 362.5,477.5C 368.5,477.5 374.5,477.5 380.5,477.5C 378.782,478.224 376.948,478.891 375,479.5C 372.282,478.987 369.449,478.987 366.5,479.5C 366.227,481.451 366.893,482.951 368.5,484C 367.833,484.333 367.167,484.667 366.5,485C 368,485.833 369.167,487 370,488.5C 370.333,488.167 370.667,487.833 371,487.5C 369.796,490.691 370.963,492.857 374.5,494C 372.291,494.957 372.457,496.124 375,497.5C 375.725,495.842 376.892,495.342 378.5,496C 376.417,497.32 376.751,498.654 379.5,500C 379.167,500.333 378.833,500.667 378.5,501C 379.891,502.65 381.391,503.15 383,502.5C 383.617,503.449 383.451,504.282 382.5,505C 387.752,510.59 393.086,516.257 398.5,522C 397.66,523.666 398.16,523.833 400,522.5C 400.483,523.448 400.649,524.448 400.5,525.5C 403.598,525.413 403.932,525.913 401.5,527C 404.275,528.439 406.775,530.272 409,532.5C 409.333,532.167 409.667,531.833 410,531.5C 411.781,535.442 414.614,538.109 418.5,539.5C 418.351,540.552 418.517,541.552 419,542.5C 419.333,542.167 419.667,541.833 420,541.5C 426.526,546.475 432.193,551.808 437,557.5C 437.333,557.167 437.667,556.833 438,556.5C 442.167,559.667 446.333,562.833 450.5,566C 452.167,566.333 453.833,566.667 455.5,567C 454.5,567.333 453.5,567.667 452.5,568C 454.833,568.333 457.167,568.667 459.5,569C 460.22,571.122 461.387,571.622 463,570.5C 465.312,570.955 467.312,571.955 469,573.5C 469.833,571 471,570.833 472.5,573C 472.167,573.333 471.833,573.667 471.5,574C 473.568,574.687 475.568,574.52 477.5,573.5C 478.892,574.605 480.059,575.939 481,577.5C 482.66,577.676 484.326,577.009 486,575.5C 489.169,576.235 492.502,576.235 496,575.5C 497.309,577.891 498.309,577.891 499,575.5C 500.016,576.634 500.683,576.301 501,574.5C 501.308,575.308 501.808,575.975 502.5,576.5C 504.167,575.167 505.833,573.833 507.5,572.5C 508.799,573.09 509.632,574.09 510,575.5C 510.667,574.833 511.333,574.167 512,573.5C 513.751,574.174 515.417,574.507 517,574.5C 518.333,573.167 519.667,571.833 521,570.5C 522.117,570.665 523.284,570.998 524.5,571.5C 526.115,570.846 527.782,570.346 529.5,570C 528.159,566.738 528.492,566.238 530.5,568.5C 531.167,567.833 531.833,567.167 532.5,566.5C 532.833,567.167 533.167,567.833 533.5,568.5C 535.396,565.664 537.896,563.664 541,562.5C 541.333,563.167 541.667,563.833 542,564.5C 544.724,560.311 548.391,558.311 553,558.5C 554,556.833 555,555.167 556,553.5C 557.667,553.5 559.333,553.5 561,553.5C 563.131,550.898 564.965,548.232 566.5,545.5C 570.021,544.816 572.521,542.816 574,539.5C 574.333,540.167 574.667,540.833 575,541.5C 576.646,539.945 576.979,538.279 576,536.5C 577.628,537.097 579.295,536.763 581,535.5C 582,532.833 583,530.167 584,527.5C 586.179,525.652 588.013,523.485 589.5,521C 588.058,520.623 587.058,519.79 586.5,518.5C 595.643,506.41 600.643,492.743 601.5,477.5C 601.5,459.833 601.5,442.167 601.5,424.5C 601.833,424.5 602.167,424.5 602.5,424.5C 603.496,438.323 603.829,452.323 603.5,466.5C 603.414,473.863 603.247,481.196 603,488.5C 603.14,485.719 604.306,483.553 606.5,482C 605.185,480.605 605.519,479.605 607.5,479C 607.888,477.475 607.888,475.808 607.5,474C 608.191,472.933 608.691,471.766 609,470.5C 609.333,471.167 609.667,471.833 610,472.5C 612.848,466.303 615.515,459.97 618,453.5C 619.791,451.587 621.791,449.92 624,448.5C 624.617,447.551 624.451,446.718 623.5,446C 624.825,446.148 625.992,445.982 627,445.5C 628.323,443.161 629.823,440.995 631.5,439C 631.167,438.667 630.833,438.333 630.5,438C 632.442,435.782 634.775,434.115 637.5,433C 637.043,432.586 636.709,432.086 636.5,431.5C 637.729,430.719 639.062,430.219 640.5,430C 640.167,429.667 639.833,429.333 639.5,429C 640.716,427.26 642.382,426.26 644.5,426C 642.431,425.676 642.098,424.842 643.5,423.5C 646.709,421.53 649.709,419.363 652.5,417C 651.655,415.442 652.321,414.442 654.5,414C 654.167,413.667 653.833,413.333 653.5,413C 654.947,410.219 656.78,407.719 659,405.5C 659.49,404.207 659.657,402.873 659.5,401.5C 660.978,401.762 662.311,401.429 663.5,400.5C 663.901,398.566 664.901,397.066 666.5,396C 665.366,394.984 665.699,394.317 667.5,394C 666.692,393.692 666.025,393.192 665.5,392.5C 666.373,390.587 667.373,388.753 668.5,387C 666.732,383.857 667.399,380.857 670.5,378C 669.556,375.281 669.223,372.448 669.5,369.5C 668.448,369.649 667.448,369.483 666.5,369C 667.349,365.893 667.683,362.893 667.5,360C 665.933,357.7 664.767,355.2 664,352.5C 663.667,352.833 663.333,353.167 663,353.5C 662.45,349.558 661.616,345.892 660.5,342.5C 659.225,340.392 658.725,338.058 659,335.5C 663.022,339.439 666.856,343.606 670.5,348C 669.919,348.893 669.585,349.893 669.5,351C 670.983,356.323 671.983,361.823 672.5,367.5C 673.328,362.868 673.828,358.202 674,353.5C 674.5,368.83 674.667,384.163 674.5,399.5 Z"/></g>
<g><path style="opacity:0.996" fill="#f6f6f7" d="M 321.5,386.5 C 321.565,386.062 321.399,385.728 321,385.5C 316.791,389.373 312.958,393.54 309.5,398C 309.957,398.414 310.291,398.914 310.5,399.5C 307.254,402.166 305.587,405.333 305.5,409C 308.742,409.283 309.076,410.117 306.5,411.5C 307.841,413.834 307.174,415.501 304.5,416.5C 305.734,418.398 305.401,420.065 303.5,421.5C 304.274,422.711 305.107,422.711 306,421.5C 306.767,424.2 307.933,426.7 309.5,429C 308.833,429.333 308.167,429.667 307.5,430C 308.337,431.011 308.67,432.178 308.5,433.5C 306.901,433.232 305.568,433.566 304.5,434.5C 303.178,434.67 302.011,434.337 301,433.5C 300.275,435.158 299.108,435.658 297.5,435C 299.929,434.549 300.096,433.715 298,432.5C 297.25,433.126 296.416,433.626 295.5,434C 296.833,435.84 296.666,436.34 295,435.5C 294.333,436.833 293.333,437.833 292,438.5C 291.508,437.451 291.674,436.451 292.5,435.5C 289.888,434.385 287.721,432.718 286,430.5C 285.805,428.793 285.805,427.126 286,425.5C 284.703,426.784 283.536,426.617 282.5,425C 284.211,421.337 286.545,418.17 289.5,415.5C 288.15,413.98 286.817,413.313 285.5,413.5C 285.19,411.799 285.69,410.132 287,408.5C 287.75,407.874 288.584,407.374 289.5,407C 289.034,405.701 289.034,404.201 289.5,402.5C 288.448,402.649 287.448,402.483 286.5,402C 288.012,398.661 288.346,395.661 287.5,393C 289.705,391.923 291.705,391.257 293.5,391C 291.637,389.582 291.137,387.749 292,385.5C 292.333,384.5 292.667,383.5 293,382.5C 293.741,383.641 294.575,383.641 295.5,382.5C 296.228,380.807 297.228,379.307 298.5,378C 298.167,377.667 297.833,377.333 297.5,377C 299.623,375.806 301.957,375.14 304.5,375C 304.167,374.667 303.833,374.333 303.5,374C 305.449,372.165 307.783,370.999 310.5,370.5C 311.04,369.252 311.707,368.085 312.5,367C 317.352,366.231 321.352,364.064 324.5,360.5C 324.291,359.914 323.957,359.414 323.5,359C 324.744,358.544 325.577,359.044 326,360.5C 327.205,359.929 328.372,359.262 329.5,358.5C 327.98,355.845 328.48,355.178 331,356.5C 333.98,354.366 336.98,353.032 340,352.5C 341.418,355.001 342.418,354.668 343,351.5C 343.333,351.833 343.667,352.167 344,352.5C 346.794,349.878 348.627,349.878 349.5,352.5C 350.333,351.5 351.167,350.5 352,349.5C 353.784,351.066 355.784,352.399 358,353.5C 360.509,352.171 362.342,350.171 363.5,347.5C 366.474,349.945 369.474,351.612 372.5,352.5C 375.135,352.106 375.801,350.939 374.5,349C 374.862,347.775 375.362,346.609 376,345.5C 377.262,347.303 378.929,348.636 381,349.5C 381.47,347.226 382.47,345.226 384,343.5C 384.54,345.135 384.04,346.468 382.5,347.5C 384.796,347.324 387.129,347.658 389.5,348.5C 390.392,353.556 392.225,354.223 395,350.5C 396.221,351.272 397.221,352.272 398,353.5C 398.333,352.5 398.667,351.5 399,350.5C 399.564,352.562 399.064,354.395 397.5,356C 398.313,357.342 398.646,358.508 398.5,359.5C 399.794,356.694 401.127,353.86 402.5,351C 398.622,349.428 398.622,347.928 402.5,346.5C 403.23,347.934 404.23,349.1 405.5,350C 404.833,350.333 404.167,350.667 403.5,351C 404.833,351.667 404.833,352.333 403.5,353C 404.448,353.483 405.448,353.649 406.5,353.5C 406.374,356.595 404.707,358.428 401.5,359C 403.709,360.691 405.542,360.524 407,358.5C 407.741,359.641 408.575,359.641 409.5,358.5C 411.35,359.242 412.016,360.242 411.5,361.5C 412.333,360.5 413.167,359.5 414,358.5C 415,359.833 416,359.833 417,358.5C 417.167,358.833 417.333,359.167 417.5,359.5C 416.624,360.251 415.624,360.751 414.5,361C 415.727,362.587 415.394,363.921 413.5,365C 414.553,367.844 416.386,370.677 419,373.5C 420.309,375.891 421.309,375.891 422,373.5C 423.217,375.52 423.383,377.52 422.5,379.5C 424.587,381.231 426.754,381.898 429,381.5C 429.419,380.328 430.085,379.328 431,378.5C 431.903,379.701 433.069,380.535 434.5,381C 434.043,381.414 433.709,381.914 433.5,382.5C 434.665,383.584 435.998,384.417 437.5,385C 436.833,386 436.167,387 435.5,388C 436.931,388.465 438.097,389.299 439,390.5C 439.333,389.5 439.667,388.5 440,387.5C 441,387.833 442,388.167 443,388.5C 443.833,386 445,385.833 446.5,388C 446.384,389.268 446.051,390.602 445.5,392C 448.465,391.556 450.965,392.723 453,395.5C 453.689,394.643 454.522,393.977 455.5,393.5C 456.48,394.981 457.647,396.315 459,397.5C 459.669,394.972 460.502,394.972 461.5,397.5C 460.256,399.133 460.756,400.133 463,400.5C 464.892,397.61 465.725,397.944 465.5,401.5C 469.692,399.736 474.025,399.069 478.5,399.5C 479.19,400.488 480.357,401.488 482,402.5C 483.505,400.702 483.672,398.868 482.5,397C 484.23,395.148 485.396,395.314 486,397.5C 486.667,396.167 487.333,396.167 488,397.5C 488.833,396.667 489.667,395.833 490.5,395C 487.576,392.107 487.91,390.94 491.5,391.5C 492.665,390.509 493.832,389.509 495,388.5C 496.762,388.944 496.595,389.444 494.5,390C 495.047,390.925 495.713,391.758 496.5,392.5C 497.354,391.478 498.354,390.645 499.5,390C 498.167,389 498.167,388 499.5,387C 501.367,386.289 502.867,386.789 504,388.5C 505.828,386.672 507.661,384.839 509.5,383C 508.293,381.7 507.626,380.2 507.5,378.5C 509.91,378.921 511.743,380.254 513,382.5C 514.538,380.671 514.038,379.171 511.5,378C 512.623,376.956 513.956,376.29 515.5,376C 512.972,373.925 513.139,373.092 516,373.5C 516.956,372.421 517.789,371.255 518.5,370C 514.193,368.979 513.859,367.812 517.5,366.5C 519.434,366.901 520.934,367.901 522,369.5C 522.5,368.5 523,367.5 523.5,366.5C 523.154,365.304 522.654,365.304 522,366.5C 521.333,365.833 521.333,365.167 522,364.5C 523.957,362.411 526.124,361.577 528.5,362C 528.043,361.586 527.709,361.086 527.5,360.5C 528.665,359.416 529.998,358.583 531.5,358C 530.151,356.365 530.318,354.865 532,353.5C 533.147,354.458 534.147,354.125 535,352.5C 535.333,353.167 535.667,353.833 536,354.5C 538.344,352.436 540.677,350.436 543,348.5C 544.326,348.755 545.326,349.422 546,350.5C 547.646,348.945 547.979,347.279 547,345.5C 549.19,346.584 550.856,345.917 552,343.5C 554.09,344.791 555.424,344.124 556,341.5C 558.599,341.367 561.266,341.367 564,341.5C 566.036,340.898 567.87,339.898 569.5,338.5C 571.432,339.52 573.432,339.687 575.5,339C 574.5,338.667 573.5,338.333 572.5,338C 574.5,337.333 576.5,337.333 578.5,338C 565.694,351.474 552.861,364.974 540,378.5C 515.657,402.049 491.49,426.049 467.5,450.5C 438.295,422.46 409.295,394.293 380.5,366C 361.642,355.168 344.475,358.001 329,374.5C 326.21,378.428 323.71,382.428 321.5,386.5 Z"/></g>
<g><path style="opacity:0.996" fill="#d2e3e4" d="M 658.5,361.5 C 659.043,361.56 659.376,361.893 659.5,362.5C 658.5,364.5 657.5,366.5 656.5,368.5C 656.709,369.086 657.043,369.586 657.5,370C 653.833,371 653.5,372.667 656.5,375C 654.98,377.596 654.147,380.429 654,383.5C 653.25,384.126 652.416,384.626 651.5,385C 652.833,385.667 654.167,386.333 655.5,387C 652.456,387.359 652.122,388.026 654.5,389C 653.04,390.582 651.373,391.915 649.5,393C 650.451,393.718 650.617,394.551 650,395.5C 649.333,394.167 648.667,394.167 648,395.5C 643.74,403.949 637.906,411.116 630.5,417C 632.569,417.324 632.902,418.158 631.5,419.5C 627.319,422.667 623.986,426.334 621.5,430.5C 620.448,430.351 619.448,430.517 618.5,431C 618.833,431.333 619.167,431.667 619.5,432C 618.151,432.772 617.318,433.939 617,435.5C 616.667,435.167 616.333,434.833 616,434.5C 615.837,436.676 615.004,438.509 613.5,440C 613.833,440.333 614.167,440.667 614.5,441C 612.385,443.2 610.051,445.2 607.5,447C 607.833,448 608.167,449 608.5,450C 607.485,452.265 606.318,454.099 605,455.5C 605.379,459.236 604.879,462.903 603.5,466.5C 603.829,452.323 603.496,438.323 602.5,424.5C 616.745,408.752 631.579,393.419 647,378.5C 648.961,375.537 651.294,372.871 654,370.5C 655.513,367.473 657.013,364.473 658.5,361.5 Z"/></g>
<g><path style="opacity:0.313" fill="#3e4546" d="M 704.5,117.5 C 705.925,120.903 706.758,124.57 707,128.5C 707.667,257.5 707.667,386.5 707,515.5C 706.79,517.058 706.29,518.391 705.5,519.5C 705.5,517.833 705.5,516.167 705.5,514.5C 706.666,387.334 706.833,260.001 706,132.5C 705.499,127.492 704.999,122.492 704.5,117.5 Z"/></g>
<g><path style="opacity:0.996" fill="#f6f6f7" d="M 674.5,399.5 C 674.667,435.835 674.5,472.168 674,508.5C 673.667,479.833 673.333,451.167 673,422.5C 672.689,424.556 672.189,426.556 671.5,428.5C 672.058,432.744 672.391,437.244 672.5,442C 671.773,443.399 671.273,444.899 671,446.5C 669.527,446.132 668.027,446.632 666.5,448C 668.428,452.27 667.261,453.77 663,452.5C 660.225,453.136 658.059,454.636 656.5,457C 657.687,458.019 658.687,459.186 659.5,460.5C 658.24,461.382 657.074,462.382 656,463.5C 655.692,462.692 655.192,462.025 654.5,461.5C 653.646,462.522 652.646,463.355 651.5,464C 652.479,465.779 652.146,467.445 650.5,469C 652.255,469.72 653.089,470.887 653,472.5C 648.556,474.165 644.389,476.998 640.5,481C 641.167,482.333 641.833,483.667 642.5,485C 641.004,485.507 639.837,485.007 639,483.5C 638.692,484.308 638.192,484.975 637.5,485.5C 635.434,484.39 634.601,485.056 635,487.5C 636.131,486.396 636.965,486.729 637.5,488.5C 636.649,491.612 635.483,491.946 634,489.5C 632.372,490.819 632.539,492.152 634.5,493.5C 633.675,494.386 632.675,494.719 631.5,494.5C 631.649,493.448 631.483,492.448 631,491.5C 628.184,495.699 629.351,497.866 634.5,498C 633.24,499.113 632.073,499.28 631,498.5C 628.588,501.797 628.088,505.297 629.5,509C 628.672,509.915 627.672,510.581 626.5,511C 627.696,511.654 627.696,512.154 626.5,512.5C 625.749,511.624 625.249,510.624 625,509.5C 624.436,511.562 624.936,513.395 626.5,515C 624.646,516.29 624.313,517.79 625.5,519.5C 625.167,519.833 624.833,520.167 624.5,520.5C 623.749,519.624 623.249,518.624 623,517.5C 622.293,519.081 621.46,520.581 620.5,522C 621.678,522.967 623.011,523.467 624.5,523.5C 623.624,524.251 622.624,524.751 621.5,525C 622.711,525.787 623.711,526.454 624.5,527C 624.108,528.011 623.441,528.511 622.5,528.5C 624.766,532.576 623.766,535.91 619.5,538.5C 618.808,537.975 618.308,537.308 618,536.5C 616.989,537.337 615.822,537.67 614.5,537.5C 614.714,539.144 614.38,540.644 613.5,542C 615.947,543.229 616.113,544.729 614,546.5C 613.097,545.299 611.931,544.465 610.5,544C 611.28,542.927 611.113,541.76 610,540.5C 609.683,542.301 609.016,542.634 608,541.5C 607.862,543.432 608.362,545.266 609.5,547C 608.258,550.357 607.424,550.19 607,546.5C 606.375,549.706 604.709,550.706 602,549.5C 599.872,552.303 597.706,555.136 595.5,558C 596.167,558.333 596.833,558.667 597.5,559C 592.786,560.056 592.453,561.723 596.5,564C 595.675,565.688 594.675,565.855 593.5,564.5C 592.167,565.167 590.833,565.833 589.5,566.5C 588.549,565.674 587.549,565.508 586.5,566C 586.833,566.333 587.167,566.667 587.5,567C 586.5,567.333 585.5,567.667 584.5,568C 585.956,568.423 586.456,569.256 586,570.5C 584.686,571.313 583.519,572.313 582.5,573.5C 581.158,572.098 580.324,572.431 580,574.5C 578.748,577.555 578.248,580.555 578.5,583.5C 576.388,582.801 574.388,583.301 572.5,585C 581.167,585.333 589.833,585.667 598.5,586C 579.503,586.5 560.503,586.667 541.5,586.5C 541.389,585.883 541.056,585.383 540.5,585C 542.087,584.138 543.754,583.471 545.5,583C 545.167,582.667 544.833,582.333 544.5,582C 546.57,581.052 548.07,579.552 549,577.5C 549.333,578.167 549.667,578.833 550,579.5C 550.667,578.167 551.333,578.167 552,579.5C 552.308,578.692 552.808,578.025 553.5,577.5C 553.833,578.167 554.167,578.833 554.5,579.5C 555.842,577.995 557.508,577.328 559.5,577.5C 560.052,575.669 560.052,574.003 559.5,572.5C 561.369,571.376 563.369,570.543 565.5,570C 564.044,569.577 563.544,568.744 564,567.5C 565.764,569.661 567.597,569.828 569.5,568C 568.376,567.751 567.376,567.251 566.5,566.5C 569.688,566.144 571.855,564.477 573,561.5C 573.414,561.957 573.914,562.291 574.5,562.5C 575.795,560.672 576.795,558.672 577.5,556.5C 578.086,556.709 578.586,557.043 579,557.5C 579.772,556.151 580.939,555.318 582.5,555C 581.833,554.667 581.167,554.333 580.5,554C 581.253,552.513 582.086,552.346 583,553.5C 583.309,552.234 583.809,551.067 584.5,550C 589.39,549.762 589.39,549.095 584.5,548C 585.325,546.312 586.325,546.145 587.5,547.5C 588.354,546.478 589.354,545.645 590.5,545C 589.289,544.107 589.289,543.274 590.5,542.5C 591.251,543.376 591.751,544.376 592,545.5C 592.783,543.567 592.283,542.067 590.5,541C 592.92,541.988 595.253,541.655 597.5,540C 596.422,539.326 595.755,538.326 595.5,537C 595.68,534.759 596.513,534.259 598,535.5C 599.152,533.351 600.652,531.518 602.5,530C 602.335,528.883 602.002,527.716 601.5,526.5C 602.891,526.891 603.891,526.058 604.5,524C 603.631,522.535 604.131,521.369 606,520.5C 607.162,521.187 608.328,521.353 609.5,521C 607.043,519.488 607.043,518.154 609.5,517C 609.167,516.667 608.833,516.333 608.5,516C 611.742,515.717 612.076,514.883 609.5,513.5C 610.975,510.09 612.975,506.59 615.5,503C 613.906,500.693 614.572,499.36 617.5,499C 616.39,496.263 616.223,493.429 617,490.5C 617.333,491.167 617.667,491.833 618,492.5C 619.487,491.747 619.654,490.914 618.5,490C 619.448,489.517 620.448,489.351 621.5,489.5C 623.047,486.601 624.047,483.768 624.5,481C 623.873,478.473 624.373,475.973 626,473.5C 626.333,474.167 626.667,474.833 627,475.5C 629.963,470.955 631.963,465.955 633,460.5C 633.333,460.833 633.667,461.167 634,461.5C 634.903,460.299 636.069,459.465 637.5,459C 637.694,457.57 637.694,456.07 637.5,454.5C 638.631,453.396 639.465,453.729 640,455.5C 641.487,454.747 641.654,453.914 640.5,453C 641.833,452 643.167,451 644.5,450C 643.692,449.692 643.025,449.192 642.5,448.5C 643.274,447.289 644.107,447.289 645,448.5C 645.645,447.354 646.478,446.354 647.5,445.5C 647.291,444.914 646.957,444.414 646.5,444C 648.779,443.527 650.779,442.527 652.5,441C 652.167,440.667 651.833,440.333 651.5,440C 652.672,439.581 653.672,438.915 654.5,438C 653.66,436.334 654.16,436.167 656,437.5C 656.318,435.939 657.151,434.772 658.5,434C 658.167,433.667 657.833,433.333 657.5,433C 658.893,430.822 660.56,429.822 662.5,430C 662.167,429.667 661.833,429.333 661.5,429C 662.483,428.409 663.15,428.743 663.5,430C 662.077,431.412 662.244,432.579 664,433.5C 665.688,432.675 665.855,431.675 664.5,430.5C 665.606,427.274 667.439,424.607 670,422.5C 670.808,420.577 671.308,418.577 671.5,416.5C 671.629,400.702 671.629,385.036 671.5,369.5C 671.833,369.167 672.167,368.833 672.5,368.5C 673.167,378.992 673.833,389.326 674.5,399.5 Z"/></g>
<g><path style="opacity:0.996" fill="#02ac41" d="M 234.5,402.5 C 210.003,403.332 185.337,403.832 160.5,404C 157.447,405.527 154.447,407.027 151.5,408.5C 153.578,405.949 156.244,404.116 159.5,403C 184.498,402.5 209.498,402.333 234.5,402.5 Z"/></g>
<g><path style="opacity:0.996" fill="#2abe6a" d="M 234.5,402.5 C 244.327,406.08 250.494,413.08 253,423.5C 253.836,445.521 253.503,467.521 252,489.5C 250.003,499.691 244.169,506.524 234.5,510C 209.833,510.667 185.167,510.667 160.5,510C 149.685,505.888 143.518,498.055 142,486.5C 141.333,466.167 141.333,445.833 142,425.5C 143.114,418.598 146.28,412.932 151.5,408.5C 154.447,407.027 157.447,405.527 160.5,404C 185.337,403.832 210.003,403.332 234.5,402.5 Z"/></g>
<g><path style="opacity:0.996" fill="#01aa36" d="M 228.5,423.5 C 207.121,423.189 185.788,423.522 164.5,424.5C 164.611,423.883 164.944,423.383 165.5,423C 186.671,422.171 207.671,422.337 228.5,423.5 Z"/></g>
<g><path style="opacity:0.996" fill="#fbfcfb" d="M 228.5,423.5 C 228.783,424.289 229.283,424.956 230,425.5C 231.403,445.483 231.736,465.483 231,485.5C 230.228,486.849 229.061,487.682 227.5,488C 217.848,488.788 208.181,489.288 198.5,489.5C 188.149,488.591 177.816,488.424 167.5,489C 165.919,488.293 164.419,487.46 163,486.5C 162.317,465.747 162.817,445.08 164.5,424.5C 185.788,423.522 207.121,423.189 228.5,423.5 Z"/></g>
<g><path style="opacity:0.996" fill="#ebf0f1" d="M 321.5,386.5 C 318.871,398.035 320.704,408.702 327,418.5C 333.036,424.369 338.87,430.369 344.5,436.5C 330.5,436.5 316.5,436.5 302.5,436.5C 315.327,435.669 328.327,435.169 341.5,435C 329.171,434.5 316.838,434.333 304.5,434.5C 305.568,433.566 306.901,433.232 308.5,433.5C 308.67,432.178 308.337,431.011 307.5,430C 308.167,429.667 308.833,429.333 309.5,429C 307.933,426.7 306.767,424.2 306,421.5C 305.107,422.711 304.274,422.711 303.5,421.5C 305.401,420.065 305.734,418.398 304.5,416.5C 307.174,415.501 307.841,413.834 306.5,411.5C 309.076,410.117 308.742,409.283 305.5,409C 305.587,405.333 307.254,402.166 310.5,399.5C 310.291,398.914 309.957,398.414 309.5,398C 312.958,393.54 316.791,389.373 321,385.5C 321.399,385.728 321.565,386.062 321.5,386.5 Z"/></g>
<g><path style="opacity:0.996" fill="#28b767" d="M 600.5,476.5 C 599.781,474.909 598.781,473.409 597.5,472C 599.604,470.164 599.938,467.998 598.5,465.5C 598.167,465.667 597.833,465.833 597.5,466C 597.48,467.715 596.814,469.548 595.5,471.5C 595.709,472.086 596.043,472.586 596.5,473C 594.865,473.54 593.532,473.04 592.5,471.5C 591.702,473.078 591.202,474.744 591,476.5C 590.346,475.304 589.846,475.304 589.5,476.5C 590.025,477.192 590.692,477.692 591.5,478C 590.151,478.772 589.318,479.939 589,481.5C 588.667,480.5 588.333,479.5 588,478.5C 586.075,479.88 584.241,481.38 582.5,483C 584.211,484.133 584.711,485.633 584,487.5C 583.586,487.043 583.086,486.709 582.5,486.5C 581.289,487.274 581.289,488.107 582.5,489C 581.256,489.456 580.423,488.956 580,487.5C 576.725,489.909 576.058,492.576 578,495.5C 576.667,494.833 575.667,493.833 575,492.5C 574.577,493.956 573.744,494.456 572.5,494C 573.451,493.282 573.617,492.449 573,491.5C 571.615,492.551 570.615,493.884 570,495.5C 567.606,495.255 565.106,495.255 562.5,495.5C 561.289,496.274 561.289,497.107 562.5,498C 560.684,499.315 559.017,500.815 557.5,502.5C 556.522,502.023 555.689,501.357 555,500.5C 552.464,502.962 550.964,505.962 550.5,509.5C 551.025,510.192 551.692,510.692 552.5,511C 549.93,510.576 547.597,510.743 545.5,511.5C 547.563,513.775 546.896,515.608 543.5,517C 547.274,520.828 546.608,521.328 541.5,518.5C 539.107,519.095 537.273,520.428 536,522.5C 534.274,521.424 532.441,521.257 530.5,522C 532.259,522.98 533.926,523.647 535.5,524C 534.167,524.333 532.833,524.667 531.5,525C 532.815,526.395 532.481,527.395 530.5,528C 531.28,529.073 531.113,530.24 530,531.5C 528.059,527.446 527.225,527.78 527.5,532.5C 526.178,532.33 525.011,532.663 524,533.5C 523.667,532.833 523.333,532.167 523,531.5C 521.956,532.623 521.29,533.956 521,535.5C 520.667,534.5 520.333,533.5 520,532.5C 518.065,535.379 515.898,538.046 513.5,540.5C 506.361,541.559 499.027,541.559 491.5,540.5C 490.674,539.549 490.508,538.549 491,537.5C 496.764,532.242 501.931,526.576 506.5,520.5C 534.777,490.556 563.777,461.222 593.5,432.5C 596.056,431.457 598.223,429.79 600,427.5C 600.5,443.83 600.667,460.163 600.5,476.5 Z"/></g>
<g><path style="opacity:0.996" fill="#a9c3ce" d="M 302.5,436.5 C 316.5,436.5 330.5,436.5 344.5,436.5C 358.194,449.527 371.527,462.86 384.5,476.5C 384.5,476.833 384.5,477.167 384.5,477.5C 383.167,477.5 381.833,477.5 380.5,477.5C 374.5,477.5 368.5,477.5 362.5,477.5C 342.5,477.5 322.5,477.5 302.5,477.5C 324.361,476.92 346.361,476.087 368.5,475C 365.549,474.904 362.882,474.071 360.5,472.5C 359.808,473.025 359.308,473.692 359,474.5C 355.753,470.709 352.086,467.376 348,464.5C 346.684,463.026 345.684,461.359 345,459.5C 343.951,460.517 342.784,460.684 341.5,460C 341.5,458 341.5,456 341.5,454C 339.314,452.691 337.147,452.524 335,453.5C 333.318,452.135 333.151,450.635 334.5,449C 333.299,448.097 332.465,446.931 332,445.5C 330.334,446.34 330.167,445.84 331.5,444C 329.833,442.333 328.167,440.667 326.5,439C 327.833,438.667 329.167,438.333 330.5,438C 320.991,437.83 311.658,437.33 302.5,436.5 Z"/></g>
<g><path style="opacity:0.996" fill="#08a441" d="M 601.5,424.5 C 601.5,442.167 601.5,459.833 601.5,477.5C 600.833,477.5 600.5,477.167 600.5,476.5C 600.667,460.163 600.5,443.83 600,427.5C 598.223,429.79 596.056,431.457 593.5,432.5C 595.833,429.5 598.5,426.833 601.5,424.5 Z"/></g>
<g><path style="opacity:0.996" fill="#020931" d="M 675.5,136.5 C 675.5,135.167 675.5,133.833 675.5,132.5C 675.351,131.448 675.517,130.448 676,129.5C 676.333,131.5 676.667,133.5 677,135.5C 677.667,261.5 677.667,387.5 677,513.5C 676.833,387.666 676.333,261.999 675.5,136.5 Z"/></g>
<g><path style="opacity:0.996" fill="#b6ccd7" d="M 302.5,436.5 C 311.658,437.33 320.991,437.83 330.5,438C 329.167,438.333 327.833,438.667 326.5,439C 328.167,440.667 329.833,442.333 331.5,444C 330.167,445.84 330.334,446.34 332,445.5C 332.465,446.931 333.299,448.097 334.5,449C 333.151,450.635 333.318,452.135 335,453.5C 337.147,452.524 339.314,452.691 341.5,454C 341.5,456 341.5,458 341.5,460C 342.784,460.684 343.951,460.517 345,459.5C 345.684,461.359 346.684,463.026 348,464.5C 352.086,467.376 355.753,470.709 359,474.5C 359.308,473.692 359.808,473.025 360.5,472.5C 362.882,474.071 365.549,474.904 368.5,475C 346.361,476.087 324.361,476.92 302.5,477.5C 291.076,475.742 285.409,469.075 285.5,457.5C 285.016,445.333 290.682,438.333 302.5,436.5 Z"/></g>
<g><path style="opacity:0.996" fill="#e2eced" d="M 660.5,342.5 C 661.616,345.892 662.45,349.558 663,353.5C 663.333,353.167 663.667,352.833 664,352.5C 664.767,355.2 665.933,357.7 667.5,360C 667.683,362.893 667.349,365.893 666.5,369C 667.448,369.483 668.448,369.649 669.5,369.5C 669.223,372.448 669.556,375.281 670.5,378C 667.399,380.857 666.732,383.857 668.5,387C 667.373,388.753 666.373,390.587 665.5,392.5C 666.025,393.192 666.692,393.692 667.5,394C 665.699,394.317 665.366,394.984 666.5,396C 664.901,397.066 663.901,398.566 663.5,400.5C 662.311,401.429 660.978,401.762 659.5,401.5C 659.657,402.873 659.49,404.207 659,405.5C 656.78,407.719 654.947,410.219 653.5,413C 653.833,413.333 654.167,413.667 654.5,414C 652.321,414.442 651.655,415.442 652.5,417C 649.709,419.363 646.709,421.53 643.5,423.5C 642.098,424.842 642.431,425.676 644.5,426C 642.382,426.26 640.716,427.26 639.5,429C 639.833,429.333 640.167,429.667 640.5,430C 639.062,430.219 637.729,430.719 636.5,431.5C 636.709,432.086 637.043,432.586 637.5,433C 634.775,434.115 632.442,435.782 630.5,438C 630.833,438.333 631.167,438.667 631.5,439C 629.823,440.995 628.323,443.161 627,445.5C 625.992,445.982 624.825,446.148 623.5,446C 624.451,446.718 624.617,447.551 624,448.5C 621.791,449.92 619.791,451.587 618,453.5C 615.515,459.97 612.848,466.303 610,472.5C 609.667,471.833 609.333,471.167 609,470.5C 608.691,471.766 608.191,472.933 607.5,474C 607.888,475.808 607.888,477.475 607.5,479C 605.519,479.605 605.185,480.605 606.5,482C 604.306,483.553 603.14,485.719 603,488.5C 603.247,481.196 603.414,473.863 603.5,466.5C 604.879,462.903 605.379,459.236 605,455.5C 606.318,454.099 607.485,452.265 608.5,450C 608.167,449 607.833,448 607.5,447C 610.051,445.2 612.385,443.2 614.5,441C 614.167,440.667 613.833,440.333 613.5,440C 615.004,438.509 615.837,436.676 616,434.5C 616.333,434.833 616.667,435.167 617,435.5C 617.318,433.939 618.151,432.772 619.5,432C 619.167,431.667 618.833,431.333 618.5,431C 619.448,430.517 620.448,430.351 621.5,430.5C 623.986,426.334 627.319,422.667 631.5,419.5C 632.902,418.158 632.569,417.324 630.5,417C 637.906,411.116 643.74,403.949 648,395.5C 648.667,394.167 649.333,394.167 650,395.5C 650.617,394.551 650.451,393.718 649.5,393C 651.373,391.915 653.04,390.582 654.5,389C 652.122,388.026 652.456,387.359 655.5,387C 654.167,386.333 652.833,385.667 651.5,385C 652.416,384.626 653.25,384.126 654,383.5C 654.147,380.429 654.98,377.596 656.5,375C 653.5,372.667 653.833,371 657.5,370C 657.043,369.586 656.709,369.086 656.5,368.5C 657.5,366.5 658.5,364.5 659.5,362.5C 659.376,361.893 659.043,361.56 658.5,361.5C 660.183,355.301 660.849,348.968 660.5,342.5 Z"/></g>
<g><path style="opacity:0.11" fill="#0c0e0e" d="M 669.5,51.5 C 670.122,52.6266 670.955,53.6266 672,54.5C 672.849,51.4785 674.349,50.9785 676.5,53C 673.706,54.036 673.206,55.536 675,57.5C 675.915,56.6721 676.581,55.6721 677,54.5C 680.16,56.0828 679.993,57.5828 676.5,59C 677.819,60.6279 679.152,60.4613 680.5,58.5C 682.946,59.9828 682.612,61.1495 679.5,62C 681.024,65.2915 682.357,65.1248 683.5,61.5C 683.734,63.6609 684.067,65.8276 684.5,68C 686.586,68.6266 686.919,68.1266 685.5,66.5C 687.293,64.0562 688.293,64.5562 688.5,68C 688.245,69.3261 687.578,70.3261 686.5,71C 687,71.5 687.5,72 688,72.5C 688.923,71.2412 689.757,69.9079 690.5,68.5C 691.712,70.836 691.379,73.0027 689.5,75C 689.613,76.2798 690.28,77.1131 691.5,77.5C 692.167,75.8333 692.833,74.1667 693.5,72.5C 694.694,75.3201 694.694,78.1534 693.5,81C 693.63,82.0588 694.13,82.8921 695,83.5C 695.202,81.7444 695.702,80.0777 696.5,78.5C 697.167,80.5 697.833,82.5 698.5,84.5C 699.251,83.624 699.751,82.624 700,81.5C 700.738,85.7097 700.572,89.8764 699.5,94C 699.93,95.4341 700.764,96.6008 702,97.5C 701.845,95.1893 701.845,92.856 702,90.5C 702.667,87.8333 703.333,87.8333 704,90.5C 704.081,94.0318 703.581,97.5318 702.5,101C 702.613,103.399 703.613,105.232 705.5,106.5C 705.336,109.187 705.503,111.854 706,114.5C 706.099,116.653 706.933,118.319 708.5,119.5C 709.563,255.176 709.563,390.843 708.5,526.5C 706.348,528.607 705.348,531.274 705.5,534.5C 706.662,539.128 707.162,543.795 707,548.5C 706.667,548.833 706.333,549.167 706,549.5C 705.667,546.167 705.333,542.833 705,539.5C 704.333,540.167 703.667,540.833 703,541.5C 703.015,546.211 703.348,550.878 704,555.5C 703.667,556.167 703.333,556.833 703,557.5C 702.461,554.471 701.794,551.471 701,548.5C 700.667,548.833 700.333,549.167 700,549.5C 700.363,553.53 700.196,557.53 699.5,561.5C 698.692,559.577 698.192,557.577 698,555.5C 697.667,555.833 697.333,556.167 697,556.5C 697.454,560.188 697.287,563.855 696.5,567.5C 695.692,565.577 695.192,563.577 695,561.5C 693.345,563.81 693.178,566.31 694.5,569C 694.167,569.833 693.833,570.667 693.5,571.5C 692.833,570.167 692.167,568.833 691.5,567.5C 690.994,570.527 690.494,573.861 690,577.5C 689.667,575.5 689.333,573.5 689,571.5C 686.048,573.193 685.882,575.026 688.5,577C 687.809,578.067 687.309,579.234 687,580.5C 686.529,578.754 685.862,577.087 685,575.5C 684.626,576.416 684.126,577.25 683.5,578C 685.558,579.808 685.892,581.975 684.5,584.5C 683.5,584.5 682.5,584.5 681.5,584.5C 681.5,585.5 681.5,586.5 681.5,587.5C 680.167,587.5 678.833,587.5 677.5,587.5C 677.5,588.5 677.5,589.5 677.5,590.5C 676.5,590.5 675.5,590.5 674.5,590.5C 674.733,594.59 672.899,595.257 669,592.5C 667.272,594.194 667.772,595.361 670.5,596C 668.863,597.951 667.363,597.784 666,595.5C 662.841,597.444 663.341,598.61 667.5,599C 665.522,601.015 663.688,600.848 662,598.5C 657.446,600.734 657.946,602.067 663.5,602.5C 660.387,602.462 657.387,602.962 654.5,604C 656.715,604.17 658.715,604.837 660.5,606C 656.812,606.45 653.146,606.283 649.5,605.5C 649.5,606.5 649.5,607.5 649.5,608.5C 651.199,608.34 652.866,608.506 654.5,609C 653.975,609.692 653.308,610.192 652.5,610.5C 650.362,609.757 648.196,609.09 646,608.5C 644.72,608.613 643.887,609.28 643.5,610.5C 645.766,611.314 648.1,611.814 650.5,612C 647.338,613.848 644.171,613.681 641,611.5C 639.365,611.878 637.865,612.544 636.5,613.5C 639.167,614.167 641.833,614.833 644.5,615.5C 638.882,615.811 633.215,615.977 627.5,616C 627.167,616.333 626.833,616.667 626.5,617C 630.687,617.071 634.687,617.738 638.5,619C 632.525,619.76 626.692,619.26 621,617.5C 618.141,618.173 615.308,619.007 612.5,620C 618.581,620.138 624.581,620.804 630.5,622C 627.443,622.256 624.443,622.756 621.5,623.5C 615.093,622.122 608.593,621.456 602,621.5C 548.839,622.042 495.673,622.042 442.5,621.5C 495.998,620.667 549.665,620.167 603.5,620C 606.004,619.302 608.337,618.469 610.5,617.5C 610.5,617.167 610.5,616.833 610.5,616.5C 656.694,607.145 687.527,580.145 703,535.5C 703.838,530.154 704.671,524.821 705.5,519.5C 706.29,518.391 706.79,517.058 707,515.5C 707.667,386.5 707.667,257.5 707,128.5C 706.758,124.57 705.925,120.903 704.5,117.5C 704.663,115.143 704.497,112.81 704,110.5C 697.61,91.0504 687.61,73.7171 674,58.5C 672.549,56.5359 670.716,55.2026 668.5,54.5C 667.833,54.5 667.5,54.1667 667.5,53.5C 664.17,49.1642 659.837,46.4975 654.5,45.5C 653.272,42.2702 650.939,40.6035 647.5,40.5C 646.426,39.1154 645.093,37.9487 643.5,37C 639.73,36.2783 636.397,34.7783 633.5,32.5C 630.628,30.6493 627.628,28.9827 624.5,27.5C 626.199,27.6204 627.865,27.9537 629.5,28.5C 633.442,26.1716 637.442,26.0049 641.5,28C 638.447,28.1786 635.447,28.6786 632.5,29.5C 633.736,30.3567 635.069,31.0234 636.5,31.5C 640.186,29.3181 643.852,29.1515 647.5,31C 645.048,31.2895 642.715,31.9562 640.5,33C 643.29,34.4365 646.123,34.2699 649,32.5C 650.225,32.8623 651.391,33.3623 652.5,34C 650.5,34.6667 648.5,35.3333 646.5,36C 649.113,37.5552 651.779,37.3885 654.5,35.5C 655.5,36 656.5,36.5 657.5,37C 655.941,37.9799 654.274,38.8133 652.5,39.5C 655.482,39.7133 658.482,40.0466 661.5,40.5C 660.167,41.1667 658.833,41.8333 657.5,42.5C 658.167,42.8333 658.833,43.1667 659.5,43.5C 661.875,42.4174 664.208,42.4174 666.5,43.5C 664.833,44.1667 663.167,44.8333 661.5,45.5C 664.212,46.0672 666.879,46.4005 669.5,46.5C 668.399,48.3939 667.066,49.0606 665.5,48.5C 666.467,49.984 667.8,50.984 669.5,51.5 Z M 696.5,85.5 C 698.344,86.2039 698.844,87.5372 698,89.5C 696.812,88.4366 696.312,87.1033 696.5,85.5 Z M 680.5,580.5 C 682.337,580.639 682.67,581.306 681.5,582.5C 680.702,582.043 680.369,581.376 680.5,580.5 Z M 677.5,583.5 C 679.337,583.639 679.67,584.306 678.5,585.5C 677.702,585.043 677.369,584.376 677.5,583.5 Z M 675.5,586.5 C 676.773,587.077 676.773,587.743 675.5,588.5C 674.537,588.03 674.537,587.363 675.5,586.5 Z M 671.5,589.5 C 673.332,590.14 673.665,591.14 672.5,592.5C 671.614,591.675 671.281,590.675 671.5,589.5 Z"/></g>
<g><path style="opacity:0.996" fill="#29bc6a" d="M 600.5,476.5 C 600.5,477.167 600.833,477.5 601.5,477.5C 600.643,492.743 595.643,506.41 586.5,518.5C 574.242,532.964 558.575,541.131 539.5,543C 519.503,543.5 499.503,543.667 479.5,543.5C 479.5,543.167 479.5,542.833 479.5,542.5C 482.935,540.947 486.268,539.114 489.5,537C 495.035,531.297 500.702,525.797 506.5,520.5C 501.931,526.576 496.764,532.242 491,537.5C 490.508,538.549 490.674,539.549 491.5,540.5C 499.027,541.559 506.361,541.559 513.5,540.5C 515.898,538.046 518.065,535.379 520,532.5C 520.333,533.5 520.667,534.5 521,535.5C 521.29,533.956 521.956,532.623 523,531.5C 523.333,532.167 523.667,532.833 524,533.5C 525.011,532.663 526.178,532.33 527.5,532.5C 527.225,527.78 528.059,527.446 530,531.5C 531.113,530.24 531.28,529.073 530.5,528C 532.481,527.395 532.815,526.395 531.5,525C 532.833,524.667 534.167,524.333 535.5,524C 533.926,523.647 532.259,522.98 530.5,522C 532.441,521.257 534.274,521.424 536,522.5C 537.273,520.428 539.107,519.095 541.5,518.5C 546.608,521.328 547.274,520.828 543.5,517C 546.896,515.608 547.563,513.775 545.5,511.5C 547.597,510.743 549.93,510.576 552.5,511C 551.692,510.692 551.025,510.192 550.5,509.5C 550.964,505.962 552.464,502.962 555,500.5C 555.689,501.357 556.522,502.023 557.5,502.5C 559.017,500.815 560.684,499.315 562.5,498C 561.289,497.107 561.289,496.274 562.5,495.5C 565.106,495.255 567.606,495.255 570,495.5C 570.615,493.884 571.615,492.551 573,491.5C 573.617,492.449 573.451,493.282 572.5,494C 573.744,494.456 574.577,493.956 575,492.5C 575.667,493.833 576.667,494.833 578,495.5C 576.058,492.576 576.725,489.909 580,487.5C 580.423,488.956 581.256,489.456 582.5,489C 581.289,488.107 581.289,487.274 582.5,486.5C 583.086,486.709 583.586,487.043 584,487.5C 584.711,485.633 584.211,484.133 582.5,483C 584.241,481.38 586.075,479.88 588,478.5C 588.333,479.5 588.667,480.5 589,481.5C 589.318,479.939 590.151,478.772 591.5,478C 590.692,477.692 590.025,477.192 589.5,476.5C 589.846,475.304 590.346,475.304 591,476.5C 591.202,474.744 591.702,473.078 592.5,471.5C 593.532,473.04 594.865,473.54 596.5,473C 596.043,472.586 595.709,472.086 595.5,471.5C 596.814,469.548 597.48,467.715 597.5,466C 597.833,465.833 598.167,465.667 598.5,465.5C 599.938,467.998 599.604,470.164 597.5,472C 598.781,473.409 599.781,474.909 600.5,476.5 Z"/></g>
<g><path style="opacity:0.38" fill="#485251" d="M 27.5,502.5 C 27.8333,502.5 28.1667,502.5 28.5,502.5C 28.5,504.5 28.5,506.5 28.5,508.5C 28.335,511.85 28.5017,515.183 29,518.5C 31.2779,526.055 33.1112,533.722 34.5,541.5C 33.8826,541.389 33.3826,541.056 33,540.5C 32.1569,534.223 30.4902,528.223 28,522.5C 27.5004,515.842 27.3337,509.175 27.5,502.5 Z"/></g>
<g><path style="opacity:0.007" fill="#000000" d="M 708.5,526.5 C 709.222,526.918 709.722,527.584 710,528.5C 710.828,533.202 710.662,537.869 709.5,542.5C 708.505,537.208 708.172,531.875 708.5,526.5 Z"/></g>
<g><path style="opacity:0.996" fill="#d6e5e7" d="M 384.5,476.5 C 406.074,497.909 427.74,519.076 449.5,540C 459.197,544.859 469.197,545.692 479.5,542.5C 479.5,542.833 479.5,543.167 479.5,543.5C 502.696,544.62 526.029,544.787 549.5,544C 545.858,544.914 542.192,545.748 538.5,546.5C 534.195,550.882 529.029,553.882 523,555.5C 522.667,555.167 522.333,554.833 522,554.5C 520.266,555.249 518.433,555.749 516.5,556C 517.451,556.718 517.617,557.551 517,558.5C 515,557.833 513,557.167 511,556.5C 510.683,558.301 510.016,558.634 509,557.5C 505.902,558.302 502.735,558.969 499.5,559.5C 498.353,559.182 497.519,558.516 497,557.5C 493.309,557.257 489.476,557.59 485.5,558.5C 484.833,557.833 484.167,557.167 483.5,556.5C 482.284,557.002 481.117,557.335 480,557.5C 474.748,555.428 469.248,554.261 463.5,554C 463.833,553.667 464.167,553.333 464.5,553C 461.768,552.587 459.101,551.92 456.5,551C 452.855,548.173 448.855,545.84 444.5,544C 445.833,543.333 445.833,542.667 444.5,542C 439.65,540.71 435.983,537.877 433.5,533.5C 432.914,533.709 432.414,534.043 432,534.5C 430.667,533.167 429.333,531.833 428,530.5C 426.334,531.34 426.167,530.84 427.5,529C 426.747,527.513 425.914,527.346 425,528.5C 424.024,526.113 422.191,524.946 419.5,525C 420.833,523.667 420.833,522.333 419.5,521C 416.541,520.228 414.041,518.728 412,516.5C 411.667,516.833 411.333,517.167 411,517.5C 406.726,511.804 402.726,505.47 399,498.5C 397.155,496.65 395.155,496.317 393,497.5C 389.615,491.063 385.782,485.563 381.5,481C 382.71,479.961 383.71,478.794 384.5,477.5C 384.5,477.167 384.5,476.833 384.5,476.5 Z"/></g>
<g><path style="opacity:0.322" fill="#4f5958" d="M 34.5,541.5 C 38.4806,549.461 42.4806,557.461 46.5,565.5C 45.3569,565.092 44.3569,564.425 43.5,563.5C 40.9041,557.971 38.0707,552.638 35,547.5C 34.5045,545.527 34.3379,543.527 34.5,541.5 Z"/></g>
<g><path style="opacity:0.006" fill="#000000" d="M 39.5,562.5 C 39.7852,564.288 39.4519,565.955 38.5,567.5C 38.1667,566.667 37.8333,565.833 37.5,565C 37.6842,563.624 38.3509,562.791 39.5,562.5 Z"/></g>
<g><path style="opacity:0.996" fill="#e2eced" d="M 380.5,477.5 C 381.833,477.5 383.167,477.5 384.5,477.5C 383.71,478.794 382.71,479.961 381.5,481C 385.782,485.563 389.615,491.063 393,497.5C 395.155,496.317 397.155,496.65 399,498.5C 402.726,505.47 406.726,511.804 411,517.5C 411.333,517.167 411.667,516.833 412,516.5C 414.041,518.728 416.541,520.228 419.5,521C 420.833,522.333 420.833,523.667 419.5,525C 422.191,524.946 424.024,526.113 425,528.5C 425.914,527.346 426.747,527.513 427.5,529C 426.167,530.84 426.334,531.34 428,530.5C 429.333,531.833 430.667,533.167 432,534.5C 432.414,534.043 432.914,533.709 433.5,533.5C 435.983,537.877 439.65,540.71 444.5,542C 445.833,542.667 445.833,543.333 444.5,544C 448.855,545.84 452.855,548.173 456.5,551C 459.101,551.92 461.768,552.587 464.5,553C 464.167,553.333 463.833,553.667 463.5,554C 469.248,554.261 474.748,555.428 480,557.5C 481.117,557.335 482.284,557.002 483.5,556.5C 484.167,557.167 484.833,557.833 485.5,558.5C 489.476,557.59 493.309,557.257 497,557.5C 497.519,558.516 498.353,559.182 499.5,559.5C 502.735,558.969 505.902,558.302 509,557.5C 510.016,558.634 510.683,558.301 511,556.5C 513,557.167 515,557.833 517,558.5C 517.617,557.551 517.451,556.718 516.5,556C 518.433,555.749 520.266,555.249 522,554.5C 522.333,554.833 522.667,555.167 523,555.5C 529.029,553.882 534.195,550.882 538.5,546.5C 542.192,545.748 545.858,544.914 549.5,544C 526.029,544.787 502.696,544.62 479.5,543.5C 499.503,543.667 519.503,543.5 539.5,543C 558.575,541.131 574.242,532.964 586.5,518.5C 587.058,519.79 588.058,520.623 589.5,521C 588.013,523.485 586.179,525.652 584,527.5C 583,530.167 582,532.833 581,535.5C 579.295,536.763 577.628,537.097 576,536.5C 576.979,538.279 576.646,539.945 575,541.5C 574.667,540.833 574.333,540.167 574,539.5C 572.521,542.816 570.021,544.816 566.5,545.5C 564.965,548.232 563.131,550.898 561,553.5C 559.333,553.5 557.667,553.5 556,553.5C 555,555.167 554,556.833 553,558.5C 548.391,558.311 544.724,560.311 542,564.5C 541.667,563.833 541.333,563.167 541,562.5C 537.896,563.664 535.396,565.664 533.5,568.5C 533.167,567.833 532.833,567.167 532.5,566.5C 531.833,567.167 531.167,567.833 530.5,568.5C 528.492,566.238 528.159,566.738 529.5,570C 527.782,570.346 526.115,570.846 524.5,571.5C 523.284,570.998 522.117,570.665 521,570.5C 519.667,571.833 518.333,573.167 517,574.5C 515.417,574.507 513.751,574.174 512,573.5C 511.333,574.167 510.667,574.833 510,575.5C 509.632,574.09 508.799,573.09 507.5,572.5C 505.833,573.833 504.167,575.167 502.5,576.5C 501.808,575.975 501.308,575.308 501,574.5C 500.683,576.301 500.016,576.634 499,575.5C 498.309,577.891 497.309,577.891 496,575.5C 492.502,576.235 489.169,576.235 486,575.5C 484.326,577.009 482.66,577.676 481,577.5C 480.059,575.939 478.892,574.605 477.5,573.5C 475.568,574.52 473.568,574.687 471.5,574C 471.833,573.667 472.167,573.333 472.5,573C 471,570.833 469.833,571 469,573.5C 467.312,571.955 465.312,570.955 463,570.5C 461.387,571.622 460.22,571.122 459.5,569C 457.167,568.667 454.833,568.333 452.5,568C 453.5,567.667 454.5,567.333 455.5,567C 453.833,566.667 452.167,566.333 450.5,566C 446.333,562.833 442.167,559.667 438,556.5C 437.667,556.833 437.333,557.167 437,557.5C 432.193,551.808 426.526,546.475 420,541.5C 419.667,541.833 419.333,542.167 419,542.5C 418.517,541.552 418.351,540.552 418.5,539.5C 414.614,538.109 411.781,535.442 410,531.5C 409.667,531.833 409.333,532.167 409,532.5C 406.775,530.272 404.275,528.439 401.5,527C 403.932,525.913 403.598,525.413 400.5,525.5C 400.649,524.448 400.483,523.448 400,522.5C 398.16,523.833 397.66,523.666 398.5,522C 393.086,516.257 387.752,510.59 382.5,505C 383.451,504.282 383.617,503.449 383,502.5C 381.391,503.15 379.891,502.65 378.5,501C 378.833,500.667 379.167,500.333 379.5,500C 376.751,498.654 376.417,497.32 378.5,496C 376.892,495.342 375.725,495.842 375,497.5C 372.457,496.124 372.291,494.957 374.5,494C 370.963,492.857 369.796,490.691 371,487.5C 370.667,487.833 370.333,488.167 370,488.5C 369.167,487 368,485.833 366.5,485C 367.167,484.667 367.833,484.333 368.5,484C 366.893,482.951 366.227,481.451 366.5,479.5C 369.449,478.987 372.282,478.987 375,479.5C 376.948,478.891 378.782,478.224 380.5,477.5 Z"/></g>
<g><path style="opacity:0.694" fill="#92a1a0" d="M 29.5,502.5 C 30.296,508.35 30.9626,514.35 31.5,520.5C 36.7041,548.247 49.7041,571.581 70.5,590.5C 64.8902,586.228 59.5569,581.562 54.5,576.5C 52.5646,572.293 49.8979,568.627 46.5,565.5C 42.4806,557.461 38.4806,549.461 34.5,541.5C 33.1112,533.722 31.2779,526.055 29,518.5C 28.5017,515.183 28.335,511.85 28.5,508.5C 29.4614,506.735 29.7947,504.735 29.5,502.5 Z"/></g>
<g><path style="opacity:0.006" fill="#000000" d="M 46.5,572.5 C 46.1077,574.179 45.6077,575.846 45,577.5C 42.6322,574.741 43.1322,573.075 46.5,572.5 Z"/></g>
<g><path style="opacity:0.502" fill="#4a5454" d="M 46.5,565.5 C 49.8979,568.627 52.5646,572.293 54.5,576.5C 51.9982,574.157 49.4982,571.823 47,569.5C 46.51,568.207 46.3433,566.873 46.5,565.5 Z"/></g>
<g><path style="opacity:0.302" fill="#444d4e" d="M 54.5,576.5 C 59.5569,581.562 64.8902,586.228 70.5,590.5C 72.1667,592.5 73.8333,594.5 75.5,596.5C 73.7446,595.928 72.0779,595.094 70.5,594C 64.5694,588.576 59.2361,582.742 54.5,576.5 Z"/></g>
<g><path style="opacity:0.996" fill="#05112f" d="M 100.5,576.5 C 113.316,583.288 126.982,587.121 141.5,588C 293.833,588.5 446.166,588.667 598.5,588.5C 444.001,589.666 289.334,589.833 134.5,589C 122.068,587.471 110.734,583.304 100.5,576.5 Z"/></g>
<g><path style="opacity:0.314" fill="#363e3e" d="M 75.5,596.5 C 82.8413,600.837 90.1746,605.17 97.5,609.5C 91.1089,606.98 84.7756,604.147 78.5,601C 77.6138,599.385 76.6138,597.885 75.5,596.5 Z"/></g>
<g><path style="opacity:0.482" fill="#5e6b6d" d="M 705.5,514.5 C 705.5,516.167 705.5,517.833 705.5,519.5C 704.671,524.821 703.838,530.154 703,535.5C 687.527,580.145 656.694,607.145 610.5,616.5C 609.833,616.5 609.5,616.167 609.5,615.5C 664.094,603.241 696.094,569.574 705.5,514.5 Z"/></g>
<g><path style="opacity:0.741" fill="#798886" d="M 70.5,590.5 C 91.273,606.763 114.94,615.763 141.5,617.5C 178.5,618.167 215.5,618.833 252.5,619.5C 245.833,619.5 239.167,619.5 232.5,619.5C 197.48,619.906 162.48,619.406 127.5,618C 117.401,615.476 107.401,612.642 97.5,609.5C 90.1746,605.17 82.8413,600.837 75.5,596.5C 73.8333,594.5 72.1667,592.5 70.5,590.5 Z"/></g>
<g><path style="opacity:0.722" fill="#00082b" d="M 606.5,615.5 C 604.369,616.314 602.036,616.814 599.5,617C 446.834,617.5 294.167,617.667 141.5,617.5C 296.344,616.822 451.344,616.155 606.5,615.5 Z"/></g>
<g><path style="opacity:0.686" fill="#43555d" d="M 606.5,615.5 C 607.5,615.5 608.5,615.5 609.5,615.5C 609.5,616.167 609.833,616.5 610.5,616.5C 610.5,616.833 610.5,617.167 610.5,617.5C 606.812,617.781 603.145,618.281 599.5,619C 483.834,619.5 368.167,619.667 252.5,619.5C 215.5,618.833 178.5,618.167 141.5,617.5C 294.167,617.667 446.834,617.5 599.5,617C 602.036,616.814 604.369,616.314 606.5,615.5 Z"/></g>
<g><path style="opacity:0.388" fill="#363f41" d="M 97.5,609.5 C 107.401,612.642 117.401,615.476 127.5,618C 162.48,619.406 197.48,619.906 232.5,619.5C 200.004,620.498 167.338,620.832 134.5,620.5C 127.597,618.859 120.597,617.692 113.5,617C 107.927,614.792 102.594,612.292 97.5,609.5 Z"/></g>
<g><path style="opacity:0.182" fill="#1c2223" d="M 610.5,617.5 C 608.337,618.469 606.004,619.302 603.5,620C 549.665,620.167 495.998,620.667 442.5,621.5C 442.167,621.5 441.833,621.5 441.5,621.5C 340.666,620.508 239.666,620.508 138.5,621.5C 137.167,621.5 135.833,621.5 134.5,621.5C 134.5,621.167 134.5,620.833 134.5,620.5C 167.338,620.832 200.004,620.498 232.5,619.5C 239.167,619.5 245.833,619.5 252.5,619.5C 368.167,619.667 483.834,619.5 599.5,619C 603.145,618.281 606.812,617.781 610.5,617.5 Z"/></g>
<g><path style="opacity:0.012" fill="#020303" d="M 441.5,621.5 C 384.166,621.333 326.832,621.5 269.5,622C 222.128,623.688 174.628,625.188 127,626.5C 123.097,626.485 119.264,625.985 115.5,625C 123.826,623.555 132.159,623.388 140.5,624.5C 142.867,624.158 145.2,623.658 147.5,623C 144.305,622.819 141.305,622.319 138.5,621.5C 239.666,620.508 340.666,620.508 441.5,621.5 Z"/></g>
<g><path style="opacity:0.006" fill="#000000" d="M 271.5,623.5 C 381.177,623.7 490.844,623.7 600.5,623.5C 606.162,624.055 611.828,624.555 617.5,625C 613.555,625.925 609.555,626.425 605.5,626.5C 513.946,625.36 422.446,625.36 331,626.5C 303.837,625.811 276.671,625.311 249.5,625C 257.011,624.829 264.345,624.329 271.5,623.5 Z"/></g>
<g><path style="opacity:0.004" fill="#000000" d="M 245.5,625.5 C 246.251,624.427 247.251,624.26 248.5,625C 247.552,625.483 246.552,625.649 245.5,625.5 Z"/></g>
<g><path style="opacity:0.004" fill="#000000" d="M 132.5,628.5 C 287.333,627.334 442.333,627.167 597.5,628C 584.031,629.084 570.531,629.584 557,629.5C 415.484,628.832 273.984,628.499 132.5,628.5 Z"/></g>
</svg>
