<?xml version="1.0" standalone="no"?>
<!DOCTYPE svg PUBLIC "-//W3C//DTD SVG 20010904//EN"
 "http://www.w3.org/TR/2001/REC-SVG-20010904/DTD/svg10.dtd">
<svg version="1.0" xmlns="http://www.w3.org/2000/svg"
 width="415.000000pt" height="415.000000pt" viewBox="0 0 415.000000 415.000000"
 preserveAspectRatio="xMidYMid meet">

<g transform="translate(0.000000,415.000000) scale(0.100000,-0.100000)"
fill="#000000" stroke="none">
<path d="M1152 2923 c-3 -135 -17 -150 -137 -145 -52 3 -135 -9 -130 -18 3 -5
15 -7 28 -4 27 5 59 -4 52 -16 -3 -4 1 -7 8 -6 6 0 13 -3 15 -9 2 -5 10 -14
19 -19 13 -7 13 -10 2 -17 -20 -12 -37 -11 -19 2 10 7 11 9 2 7 -8 -2 -14 -8
-15 -13 -1 -6 32 -11 76 -13 66 -2 84 1 113 19 44 27 65 68 69 133 1 28 0 34
-2 14 -2 -21 -8 -38 -14 -38 -5 0 -8 6 -6 12 1 7 -8 14 -20 16 -14 2 -24 -2
-25 -10 -1 -7 -5 37 -8 97 l-6 110 -2 -102z"/>
<path d="M923 2743 c-18 -7 -16 -20 2 -20 8 0 16 6 19 14 6 13 0 15 -21 6z"/>
<path d="M692 2694 c10 -10 20 -16 22 -13 3 3 -5 11 -17 18 -21 13 -21 12 -5
-5z"/>
<path d="M3524 1108 c-49 -57 -132 -150 -184 -208 -52 -58 -155 -175 -227
-262 -129 -152 -176 -198 -238 -232 -27 -15 -28 -16 -5 -11 14 3 35 6 47 8 11
2 28 9 37 16 9 7 16 10 16 7 0 -4 11 4 25 18 14 14 25 29 25 35 0 5 3 11 8 13
4 2 38 46 77 98 70 96 222 281 292 356 52 56 225 264 220 264 -3 0 -45 -46
-93 -102z"/>
<path d="M1232 1009 c-1 -20 -4 -52 -7 -70 l-5 -34 11 33 c5 19 8 50 6 70 l-4
37 -1 -36z"/>
</g>
</svg>
